<svg xmlns="http://www.w3.org/2000/svg" viewBox="0 0 249.96 161.55"><defs><style>.cls-1{fill:#193772;}</style></defs><g id="Capa_2" data-name="Capa 2"><g id="Capa_1-2" data-name="Capa 1"><path class="cls-1" d="M231.06,95.23c-7.31-1.85-38.73-2.56-59.28-1.87-.32,0-35.81,1.15-51.74,1s-51.4-1.8-51.72-1.82c-20.53-1-52-.77-59.3,1-2,.48-2.11,5.39-1.95,8.55a4,4,0,0,0,2.18,3.36c11.5,5.8.57,36.55,20.55,49.43,9.84,6.34,56.67,9.94,66.73-2.36,16.72-20.44,9-46.54,23.42-46.43s6.31,26.09,22.71,46.78c9.88,12.46,56.76,9.57,66.69,3.37,20.17-12.57,9.71-43.48,21.3-49.11a4,4,0,0,0,2.24-3.32C233.1,100.65,233.08,95.74,231.06,95.23Zm-139,53.51c-7.8,9.2-38.2,8.27-57.57,3.16C23.55,149,22.88,123.27,21,110.59c-1.35-9.28,11.69-9.87,27.33-10.2,22.9-.5,45.18.23,52.05,2.5C111.22,106.46,98.31,141.41,92.08,148.74ZM218.79,112.1c-2,12.65-3.1,38.37-14.11,41.09-19.44,4.82-49.85,5.29-57.51-4-6.11-7.43-18.49-42.57-7.64-46,6.9-2.17,29.19-2.56,52.08-1.71C207.25,102.05,220.28,102.83,218.79,112.1Z"/><path class="cls-1" d="M64.88,2.74a4.86,4.86,0,0,1,2,3.72,7.2,7.2,0,0,1,0,1.49c0,.58-.09,1.16-.15,1.73s-.13,1.05-.23,1.61a5,5,0,0,1-.39,1.32,2.4,2.4,0,0,1-1,1,3.56,3.56,0,0,1-1.71.28q-1.83,0-8.72-.85l-6.64-.8c-1.9-.22-3.06-.34-3.46-.34l-1.86-.11-2.67-.15c-.43,0-1-.05-1.59-.05l-.33.77c-.24.63-.56,1.4-.94,2.3s-.74,1.76-1.07,2.55-.6,1.34-.91,2-.52,1.29-.65,1.59l-.35.79c-.13.29-.23.51-.31.67-.19.38-.51,1.06-1,2l-1.44,3.15c-.46,1.06-.9,2-1.31,2.89l-.91,2c-.24.55-.55,1.22-.92,2L27.37,36.6q-1.23,2.68-2.22,4.88L21,51.21c-.08.21-.39,1.09-.91,2.62S19,57.12,18.36,59.11q-.87,2.52-1.59,4.64c-.48,1.41-.82,2.38-1,2.93q-1.51,4.44-2.48,8.47c-.24,1-.42,1.84-.51,2.44A9.22,9.22,0,0,0,12.62,79a5,5,0,0,0,.12,1.08A2.69,2.69,0,0,1,12.46,82c-.31.56-.93.74-1.85.54a5.82,5.82,0,0,1-2.65-2A11.61,11.61,0,0,1,6,77.36a15.56,15.56,0,0,1-.71-5.91,45,45,0,0,1,1.21-7C7.26,61.11,8.11,57.73,9,54.26S10.78,48,11.44,46c.58-1.84,1.19-3.73,1.85-5.67s1.2-3.47,1.61-4.58l.87-2.32.7-1.92c.08-.19.16-.39.24-.61l.09-.12a3.63,3.63,0,0,1,.2-.61q.12-.28.21-.45,1.18-3,3.62-8.42t4.23-9l.12-.28q-7,.38-12.88,1.09c-4,.5-6.66.79-8.16.87a4.48,4.48,0,0,1-3-.38,3.47,3.47,0,0,1-1-2.08A10.23,10.23,0,0,1,0,8.82q0-.42.15-1a3.46,3.46,0,0,1,.27-.94l.08-.12A3.67,3.67,0,0,1,2.71,5.52C3.79,5.2,6,4.67,9.19,3.92A118.34,118.34,0,0,1,32.2.7,3.2,3.2,0,0,1,35,.1a2.54,2.54,0,0,1,.9.5h1.83Q48.83.69,56,1.2c2,.15,3.84.34,5.48.59A10.59,10.59,0,0,1,64.88,2.74Z"/><path class="cls-1" d="M72.67,45.21a5.1,5.1,0,0,1,1.11,1.35q.59.93,1,1.59a6.35,6.35,0,0,1,.62,2.2A4.94,4.94,0,0,1,75.09,52l-.09.33c-.82,2.71-1.71,5.43-2.68,8.14q-2.17,6-3.87,12.22a18.53,18.53,0,0,0-.24,2.48,5.46,5.46,0,0,0,.22,1.88,1.42,1.42,0,0,1-.33,1.55,1.84,1.84,0,0,1-1.92.36,6.2,6.2,0,0,1-2.28-2,12.59,12.59,0,0,1-1.74-3,12.35,12.35,0,0,1-.35-5A33.62,33.62,0,0,1,62.56,65a4.93,4.93,0,0,1,.17-.69,2.33,2.33,0,0,0,0-.41c0-.11,0-.16,0-.16a1,1,0,0,0-.3.22l-.64.55a149.81,149.81,0,0,1-13.5,12.4q-4.62,3.51-7.22,3.34c-.36,0-.72,0-1.08-.07a3.89,3.89,0,0,1-.92-.19,11.79,11.79,0,0,1-4-2.21q-7.16-5-5.08-14.05A53.69,53.69,0,0,1,41.79,40.93q6.8-7.83,13.85-10a10.08,10.08,0,0,1,1.9-.46c.53-.07,1.3-.11,2.3-.14q1.11,0,1.71,0a4,4,0,0,1,1.1.17c.33.09.75.24,1.27.43a18.75,18.75,0,0,1,5.85,3.65l1.14,1.14a5.81,5.81,0,0,1,1.48,2.74,2.12,2.12,0,0,1-.44,2,2.86,2.86,0,0,1-1.31.77A.63.63,0,0,1,70,41a5.93,5.93,0,0,1-.36-1,8,8,0,0,0-.52-1.39c-.41-.76-1.33-1.16-2.77-1.19A11.39,11.39,0,0,0,62,38.65a23.91,23.91,0,0,0-5,3.24,46.15,46.15,0,0,0-4.61,4.65,64.07,64.07,0,0,0-4.6,5.91A73.63,73.63,0,0,0,43,61.18a48.17,48.17,0,0,0-3.19,8,5.09,5.09,0,0,1-.12.66.5.5,0,0,0,0,.16c-.06.16,0,.24,0,.22a2.66,2.66,0,0,0,.55-.3c.22-.14.41-.27.59-.41l.39-.28.16-.16c.19-.14.47-.35.82-.65s.74-.62,1.15-1c.57-.46,1.52-1.24,2.84-2.35s2.72-2.27,4.19-3.49,2.73-2.3,3.78-3.16,1.64-1.37,1.78-1.51c.79-.59,1.76-1.37,2.9-2.35.82-.7,1.61-1.36,2.38-2s1.4-1.12,1.92-1.5L68,46.86a18.26,18.26,0,0,1,2.84-1.76A1.71,1.71,0,0,1,72.67,45.21Z"/><path class="cls-1" d="M119.62,36.62a5,5,0,0,1,.58,1.29,12.34,12.34,0,0,1,.26,1.77,20.4,20.4,0,0,1,0,3.67,31.21,31.21,0,0,1-.51,3.79c0,.16-.12.41-.2.75s-.17.7-.25,1.08-.11.52-.17.74c-.19.78-.38,1.56-.58,2.32s-.51,1.93-.95,3.5c-.47,1.74-.87,3.19-1.2,4.36s-.63,2.28-.82,3-.34,1.26-.44,1.57-.16.51-.18.59c-.11.4-.31,1.27-.58,2.6s-.53,2.63-.75,3.87a12.79,12.79,0,0,0-.3,2.39c0,.64.07,1.62.2,3,.07,1.06.12,1.84.13,2.35a2.08,2.08,0,0,1-.15,1,.85.85,0,0,1-.61.34,1.21,1.21,0,0,1-.47,0,2.7,2.7,0,0,1-.63-.17,9.83,9.83,0,0,1-3.82-2.8,14.23,14.23,0,0,1-2.71-4.6,18.09,18.09,0,0,1-.54-2.75c-.18-1.24-.31-2.51-.42-3.82a23.4,23.4,0,0,1-.07-3.14,52,52,0,0,1,1.51-10.63c.14-.57.28-1.12.42-1.67s.29-1.07.37-1.34a12.29,12.29,0,0,1,.35-1.2q.27-.84.6-1.77l.74-2.2-.66.65A109.25,109.25,0,0,0,94.21,61.06q-2.5,3.59-4.12,6.16T86.66,73.1c-.79,1.47-1.39,2.51-1.8,3.13a3.15,3.15,0,0,1-.9,1.06,4.09,4.09,0,0,1-2.79-.36,15.17,15.17,0,0,1-3.5-2,10.13,10.13,0,0,1-2.62-2.78l-.57-.9.29-1.51A82.5,82.5,0,0,1,78,59.62q2.69-7.34,5.81-14.49a5.09,5.09,0,0,1,.2-.53c.33-.73.69-1.56,1.09-2.48s.76-1.79,1.09-2.61c.06-.11.11-.22.17-.32.38-.93.69-1.65.92-2.16s.42-.89.55-1.12a.94.94,0,0,1,.37-.41,1.22,1.22,0,0,1,.41-.06h0a4.66,4.66,0,0,1,2.14.93,7.41,7.41,0,0,1,1.93,1.94,6.3,6.3,0,0,1,.56,2.35,15.45,15.45,0,0,1,0,3.12c-.06.38-.1.71-.13,1s0,.45,0,.51.11,0,.33-.17.49-.43.81-.73c.68-.7,1.67-1.65,3-2.86s2.33-2.16,3.15-2.86c.27-.22.5-.41.67-.57l.31-.28A17.28,17.28,0,0,1,103,36.5q1.26-1,2.73-2c1-.66,1.79-1.17,2.42-1.52a12.88,12.88,0,0,1,2.63-1.09,5.11,5.11,0,0,1,2.06-.24,11.15,11.15,0,0,1,3.76,1.85A11.75,11.75,0,0,1,119.62,36.62Z"/><path class="cls-1" d="M149.4,61.64a30.68,30.68,0,0,1,7.35-3.19c2-.51,3.58-.29,4.6.67a2.32,2.32,0,0,1,.77,1.67q.07,1.88-2.58,3.42l-2,1.4c-.94.66-1.93,1.37-3,2.13l-2.82,2.1-1.64,1.22c-2,1.49-4.19,2.93-6.44,4.34a58.62,58.62,0,0,1-5.41,3.08,12.29,12.29,0,0,1-8.12,1.23,12.67,12.67,0,0,1-3.66-1.81,18,18,0,0,1-3.45-3q-3.86-4.08-2.65-10.48a45.4,45.4,0,0,1,7-16.77,55.76,55.76,0,0,1,8-9.51,34.65,34.65,0,0,1,8.78-6.33,12.58,12.58,0,0,1,5.07-1.48,9.51,9.51,0,0,1,4.64,1.16,13.12,13.12,0,0,1,4.67,4.13l.77,1.55.44,2.33q.15,3.71-3,8.87a26.29,26.29,0,0,1-10.66,10.23q-6.72,3.52-12.83,2.56h0l-.45-.08-1.73,4.27-.24.82c-.17.51-.33,1.15-.5,1.89s-.32,1.49-.46,2.22a4.11,4.11,0,0,0-.12,1v.45l.28-.08c.87-.35,2-.82,3.31-1.42s2.54-1.18,3.63-1.78q2.25-1.17,4.8-2.61c1.7-1,3.09-1.75,4.15-2.37l1.8-1,.2-.08.53-.28C148.76,62,149.07,61.8,149.4,61.64Zm-13.26-7.3-.08.2.81-.08,3.1-.76a19.91,19.91,0,0,0,8.1-5.11,30,30,0,0,0,3.3-4.92,20.93,20.93,0,0,0,2.07-5c.06-.36.11-.64.17-.86l0-.45-.2,0-1.21.41a6.5,6.5,0,0,0-1.24.56q-2.94,1.59-8.3,7.19a42,42,0,0,0-3.48,4.1Z"/><path class="cls-1" d="M188.84,25.11c-.55,1.38-1.32,3.31-2.31,5.77-.66,1.66-1.25,3.15-1.79,4.48s-.88,2.17-1.05,2.53-.25.65-.35.91a2,2,0,0,0-.14.55l-.15.41c-.07.19-.16.39-.26.61-.22.43-.7,1.64-1.44,3.62s-1.54,4.14-2.37,6.47l-2,5.7q-2.43,7.22-3.64,12A82.21,82.21,0,0,0,171.47,78c-.11.73-.23,1.38-.35,1.94a4.37,4.37,0,0,1-.35,1.11c-.44.76-1.2.71-2.28-.17a9.52,9.52,0,0,1-1.85-2.35,12.12,12.12,0,0,1-1.31-3q-1-4.56.87-14.83a176.93,176.93,0,0,1,5-18.65c.25-.84.5-1.63.74-2.37s.43-1.38.54-1.71c.14-.48.56-1.69,1.28-3.62l2.43-6.59c.19-.46.37-.91.53-1.35a.3.3,0,0,0,0-.16,21.58,21.58,0,0,1-2.25.32,23.4,23.4,0,0,1-4.13-.32,3.48,3.48,0,0,1-1.86-.93A7.9,7.9,0,0,1,167,22.7a6.61,6.61,0,0,1-.56-2.73,2.18,2.18,0,0,1,.65-1.41,4.54,4.54,0,0,1,1.68-.79,39.07,39.07,0,0,1,4.52-.55c2.21-.18,4.23-.28,6.08-.3h1.39q2.58-5.45,4.92-9.42a23,23,0,0,1,3.85-5.26q2.37-1.86,4.89,1.65a5,5,0,0,1,1,4.32,24.54,24.54,0,0,1-.78,2.57c-.39,1.08-.8,2.13-1.24,3.13-.14.38-.27.75-.41,1.1s-.19.42-.25.53c-.35.95-.65,1.74-.9,2.36,1.44.25,2.82.54,4.15.87A7,7,0,0,1,199,21a10.82,10.82,0,0,1,1.6,3q1.9,4.49-3.43,2.47A48,48,0,0,0,188.84,25.11Z"/><path class="cls-1" d="M218.52,34.27a9.85,9.85,0,0,1,2.5,5.35q.12,1.18.21,3.48c.07,1.54.07,3.06,0,4.57a11.57,11.57,0,0,1-.46,3.24,1.37,1.37,0,0,1-1.56.85,8.06,8.06,0,0,1-2.32-.66,13,13,0,0,1-1.62-.83,10,10,0,0,1-2.78-3.06A16.62,16.62,0,0,1,211,42.64l-.24-1.19-.65.49A34.47,34.47,0,0,0,205,46.4a14.32,14.32,0,0,0-2.09,2.91,3.35,3.35,0,0,0-.46,1.69v.2a.53.53,0,0,0,0,.33,1.25,1.25,0,0,0,.37.43,10.85,10.85,0,0,0,1,.74c.48.31,1.13.72,2,1.21a43.17,43.17,0,0,1,8.51,6.21,14.81,14.81,0,0,1,4,6.55,7.85,7.85,0,0,1-.94,6,17.62,17.62,0,0,1-4.89,5.38,21,21,0,0,1-8.9,4.25,14.66,14.66,0,0,1-1.84.3,17.44,17.44,0,0,1-2,0,12.34,12.34,0,0,1-2.53-.23,14.69,14.69,0,0,1-2.48-.81A21.66,21.66,0,0,1,186,75.23a15.8,15.8,0,0,1-3.84-9.14,19.1,19.1,0,0,1,0-2.31,12.23,12.23,0,0,1,.37-2.89c.24-.91.68-1.43,1.33-1.56a3.14,3.14,0,0,1,1.94.76,21.27,21.27,0,0,1,1.81,1.49,2.61,2.61,0,0,0,.4.41,6.24,6.24,0,0,1,1.42,2,18.36,18.36,0,0,1,.81,2.35c0,.06.05.12.08.21a15.15,15.15,0,0,0,4,6.86l0,0a.28.28,0,0,0,.12.12.58.58,0,0,0,.22.06,1.59,1.59,0,0,0,.43,0l.74-.12a19.33,19.33,0,0,0,6.8-3,14.89,14.89,0,0,0,4.72-4.82,2.07,2.07,0,0,0,0-2.08c-.36-.78-1.48-1.73-3.35-2.82a62.18,62.18,0,0,1-7.28-4.61,16.22,16.22,0,0,1-3.86-4.2,13.56,13.56,0,0,1-1-1.86,6.59,6.59,0,0,1-.42-1.85q-.79-6.16,5.18-11.84a32.25,32.25,0,0,1,4.17-3.47,21.73,21.73,0,0,1,4.33-2.45,11.36,11.36,0,0,1,2.69-.56,11.67,11.67,0,0,1,2.78,0,14.5,14.5,0,0,1,4.21,1.6A16.59,16.59,0,0,1,218.52,34.27Z"/><path class="cls-1" d="M228.05,79.39a1.76,1.76,0,0,1-1.37-.07,3.81,3.81,0,0,1-1.16-.8,7.75,7.75,0,0,1-2.3-4.21c-.51-2-.37-5.24.44-9.86a103.76,103.76,0,0,1,5.77-17c.33-.76.63-1.44.91-2s.49-1.07.57-1.26.37-.69.78-1.51l1.4-2.8a93,93,0,0,1,4.43-8.51,1.49,1.49,0,0,1,1.61-.05,5.06,5.06,0,0,1,2,1.58,5.15,5.15,0,0,1,1.22,2.43,14,14,0,0,1,.07,3.77,29.58,29.58,0,0,1-.71,4.32,35.44,35.44,0,0,1-1.28,4.31c-.09.19-.22.56-.42,1.1-.08.24-.18.5-.28.77-.33.93-.82,2.22-1.47,3.89s-1.22,3.13-1.75,4.38q-2.05,4.92-3.53,8.79l-.75,1.89c-.21.56-.35.89-.41,1A56.08,56.08,0,0,0,230.06,75c-.11.41-.22.78-.33,1.1Q229.15,78.82,228.05,79.39Zm16.21-50.94a3.93,3.93,0,0,1-3.73-.87,5,5,0,0,1-1.39-3.91A8.38,8.38,0,0,1,240.93,19a7.17,7.17,0,0,1,3.91-2.7,4,4,0,0,1,3.76.87A4.87,4.87,0,0,1,250,21.1a8.36,8.36,0,0,1-1.79,4.66A7.22,7.22,0,0,1,244.26,28.45Z"/></g></g></svg>