<svg xmlns="http://www.w3.org/2000/svg" viewBox="0 0 249.9 223.79"><defs><style>.cls-1{fill:none;}</style></defs><g id="Capa_2" data-name="Capa 2"><g id="Capa_1-2" data-name="Capa 1"><path id="Capa_2-2" data-name="Capa 2" class="cls-1" d="M222.36,0H27.58A27.56,27.56,0,0,0,3.7,41.35L101.1,210a27.57,27.57,0,0,0,47.74,0L246.21,41.35h0A27.57,27.57,0,0,0,222.36,0ZM205.25,45c-.07,1-.15,2-.24,2.93s-.22,1.79-.38,2.74a8,8,0,0,1-.66,2.24,3.91,3.91,0,0,1-1.66,1.73,6,6,0,0,1-2.9.49q-3.12,0-14.8-1.39L173.33,52.4q-4.83-.55-5.88-.55c-.64-.05-1.69-.11-3.14-.18l-4.53-.24c-.74,0-1.64-.07-2.7-.07l-.55,1.32q-.63,1.59-1.59,3.9l-1.8,4.33c-.51,1.15-1,2.28-1.52,3.39-.51,1.29-.88,2.19-1.11,2.69l-.59,1.35c-.2.49-.38.87-.51,1.14-.33.65-.86,1.79-1.6,3.43l-2.42,5.36c-.88,1.94-1.52,3.43-2.21,4.91s-1.2,2.58-1.52,3.31c-.41.93-.93,2.08-1.56,3.46s-1.21,2.68-1.76,3.88q-2.07,4.56-3.73,8.29l-6.92,16.53c-.14.37-.65,1.86-1.52,4.46s-1.87,5.6-3,9q-1.44,4.29-2.66,7.88t-1.69,5a145.54,145.54,0,0,0-4.15,14.39c-.42,1.75-.7,3.13-.87,4.15a16.8,16.8,0,0,0-.24,2.45,8,8,0,0,0,.21,1.83,4.68,4.68,0,0,1-.45,3.22q-.81,1.42-3.15.93a9.77,9.77,0,0,1-4.49-3.32,19.44,19.44,0,0,1-3.32-5.46,26.29,26.29,0,0,1-1.25-10,77.26,77.26,0,0,1,2-12q1.86-8.37,4.22-17.22t4-14q1.44-4.71,3.11-9.65c1.11-3.29,2-5.89,2.7-7.78.6-1.61,1.08-2.93,1.45-3.94l1.18-3.25c.13-.32.27-.67.41-1a.6.6,0,0,0,.14-.21,7.36,7.36,0,0,1,.34-1c.14-.33.26-.58.35-.76q2-5.19,6.09-14.32t7.12-15.35l.21-.49q-11.85.69-21.86,1.94T98.78,55.58q-3.6.42-5-.62A6,6,0,0,1,92,51.43a17,17,0,0,1-.2-4.56A12.27,12.27,0,0,1,92,45.14a5.46,5.46,0,0,1,.45-1.59l.14-.21a6.14,6.14,0,0,1,3.66-2.07q2.76-.84,11-2.77a200.54,200.54,0,0,1,39-5.6,5.51,5.51,0,0,1,4.78-1,4.26,4.26,0,0,1,1.52.83h3.11q18.81.08,30.91.9,5.12.34,9.3,1a17.79,17.79,0,0,1,5.85,1.59,8.29,8.29,0,0,1,3.46,6.29A13,13,0,0,1,205.25,45Z"/></g></g></svg>