<svg xmlns="http://www.w3.org/2000/svg" viewBox="0 0 250 245.33"><defs><style>.cls-1{fill:#193772;}</style></defs><g id="Capa_2" data-name="Capa 2"><g id="color_fondo"><path class="cls-1" d="M0,18.2C1.12,13.11,3.09,8.52,7.19,5c4.31-3.64,9.3-5,14.87-5Q56.25.08,90.42,0q50.42,0,100.82,0c9,0,15.85,3.63,20,11.75,2,3.94,2.31,8.27,2.06,12.6-.12,2,.49,2.55,2.53,2.52,8.05-.13,16.11-.06,24.16-.05,7,0,10,3,10,9.9v68.6c0,7.14-2.93,10.1-10,10.1q-58.59,0-117.18,0c-2.23,0-2.87.55-2.76,2.77.19,4.06.1,8.14,0,12.2,0,1.24.28,1.75,1.6,1.64a44.88,44.88,0,0,1,4.64,0,8.12,8.12,0,0,1,8.1,7.55,26.69,26.69,0,0,1,.11,2.68q0,46.52,0,93c0,2.74-.21,5.36-2.23,7.49a8,8,0,0,1-6.08,2.61c-9.6,0-19.2.06-28.8,0-4.76,0-7.87-3.17-8.21-7.9,0-.49,0-1,0-1.47q0-47.23,0-94.47c0-5.6,2.88-9.11,7.7-9.45a30.58,30.58,0,0,1,4.88,0c1.6.15,1.85-.48,1.83-1.91-.07-6.84,0-13.67,0-20.51,0-7.73,2.89-10.65,10.55-10.65q58.35,0,116.69.06c2.3,0,2.72-.67,2.71-2.8q-.13-25.26,0-50.53c0-1.87-.41-2.49-2.38-2.44-5.21.15-10.42.12-15.62,0-1.67,0-2.19.37-2.19,2.12,0,6.83.38,13.68-.19,20.5-.88,10.48-9.57,18.73-21.22,18.72H22.23c-9.08,0-16-3.66-20.21-11.87-1-2-1.24-4.15-2-6.17Z"/></g></g></svg>