<svg xmlns="http://www.w3.org/2000/svg" viewBox="0 0 242.73 250"><defs><style>.cls-1{fill:#193772;}</style></defs><g id="Capa_2" data-name="Capa 2"><g id="interlineado-"><path class="cls-1" d="M173.7,112.75h-69V68.62h69ZM50.09,152.92a9.27,9.27,0,0,0-16.06,0L1.26,209.68a9.27,9.27,0,0,0,8,13.91H20V250H64.12V223.59H74.83a9.27,9.27,0,0,0,8-13.91ZM74.83,26.41H64.12V0H20V26.41H9.29a9.27,9.27,0,0,0-8,13.91L34,97.08a9.27,9.27,0,0,0,16.06,0L82.86,40.32A9.27,9.27,0,0,0,74.83,26.41ZM104.67,250h69V205.87h-69Zm0-68.62H242.73V137.25H104.67ZM104.67,0V44.13H242.73V0Z"/></g></g></svg>