<svg xmlns="http://www.w3.org/2000/svg" viewBox="0 0 250 179.11"><defs><style>.cls-1{fill:#193772;}</style></defs><g id="Capa_2" data-name="Capa 2"><g id="leer_parrafos"><path class="cls-1" d="M250,97.82c-1.13,3.28-1.14,6.76-1.82,10.13a95.11,95.11,0,0,1-23,45.23A88.54,88.54,0,0,1,194,175.55c-7.26,3.16-14.74,0-16.89-7.17a11.16,11.16,0,0,1,4.46-12.63c3-2,6.22-3.51,9.3-5.3,19.44-11.31,31.32-28.06,34.69-50.26,3.66-24.06-3.84-44.7-21.13-61.74-5.3-5.22-11.64-9-18.25-12.42a21.61,21.61,0,0,1-6.43-4.31A11.44,11.44,0,0,1,178.25,8a11.46,11.46,0,0,1,13-5.41c5.36,1.49,10.18,4.24,14.82,7.21,22,14.1,35.63,34.11,41.76,59.37a73.36,73.36,0,0,1,1.73,11.06c0,.5-.26,1.17.48,1.47v2.44c-.3.27-.24.63-.25,1s-.05.7.25,1v6.84c-.3.27-.24.63-.25,1s-.05.71.25,1ZM141.09,13.58a22.8,22.8,0,0,0-.27-3.88A11.64,11.64,0,0,0,122,2.63a26.36,26.36,0,0,1-2.37,1.71Q90.68,22.87,61.77,41.39a7.16,7.16,0,0,1-4.07,1.22c-14.8,0-29.61.2-44.4-.12-8-.18-13.39,6-13.3,13.41q.41,33.67,0,67.35c-.08,7.1,5.11,13.5,13.41,13.3,14.79-.34,29.6-.07,44.4-.12a6.74,6.74,0,0,1,3.85,1.14c8.93,5.77,17.93,11.44,26.85,17.24C100,162.3,111.79,169.32,123,177.2a10.76,10.76,0,0,0,9.79,1.29c5.28-1.68,8.27-6.14,8.28-12.41q0-38.18,0-76.37T141.09,13.58Zm28.66,94.47a72.94,72.94,0,0,0-6,4.17c-2.2,1.7-4.26,3.57-5,6.4A11.1,11.1,0,0,0,162,130.4a11.22,11.22,0,0,0,12.45,2.25c11.69-4.58,19.73-13.07,24.56-24.4,6.8-15.93,5-31.27-4.47-45.68a40.31,40.31,0,0,0-21.1-16.51,11.62,11.62,0,0,0-13.53,5.08A11,11,0,0,0,161.63,65a42.14,42.14,0,0,0,8,5.94c6.92,4.35,9.89,10.7,9.86,18.69S176.58,103.76,169.75,108.05Z"/></g></g></svg>