<svg xmlns="http://www.w3.org/2000/svg" viewBox="0 0 244.32 250"><defs><style>.cls-1{fill:#fff;}</style></defs><g id="Capa_2" data-name="Capa 2"><g id="Capa_1-2" data-name="Capa 1"><path class="cls-1" d="M124.6,0c4.9,1.09,8.44,4.19,11.88,7.65q37.65,37.77,75.38,75.46a26.1,26.1,0,0,1,3.88,4.66c2.15,3.53,1,6.41-3,7.4a22.43,22.43,0,0,1-5.31.55c-8.78.06-17.57,0-26.35,0h-2.93V99.1q0,53.68,0,107.39a11.8,11.8,0,0,1-.63,4.53c-1.2,2.81-3.54,4-6.65,4-12.85-.06-25.71,0-38.56,0q-29,0-58.09,0c-5.61,0-8-2.37-8-8V95.75H63.24c-8.78,0-17.57,0-26.35,0a22.43,22.43,0,0,1-5.31-.55c-4-1-5.13-3.85-3-7.4a20.71,20.71,0,0,1,3.2-4Q70.91,44.59,110.08,5.41A21.36,21.36,0,0,1,119.71,0Zm-70,205.59q-23.06,0-46.12,0C2.88,205.6,0,208.45,0,214q0,13.68,0,27.34C0,247.25,2.79,250,8.69,250h227c5.89,0,8.63-2.76,8.64-8.68q0-13.42,0-26.85c0-6.18-2.73-8.87-8.95-8.88H187.91a50.31,50.31,0,0,1-.69,6.62c-1.88,7.75-8.09,12.39-16.51,12.4q-42.35,0-84.69,0c-4.47,0-9,.07-13.42,0a15.81,15.81,0,0,1-15.5-12.43,48.64,48.64,0,0,1-.68-6.48C55.69,205.65,55.13,205.59,54.56,205.59Z"/></g></g></svg>