<svg xmlns="http://www.w3.org/2000/svg" viewBox="0 0 244.05 250"><defs><style>.cls-1{fill:#193774;}</style></defs><g id="Capa_2" data-name="Capa 2"><g id="Capa_10" data-name="Capa 10"><path class="cls-1" d="M235.8,183.05h-9.52V159.57H187.05v23.48h-9.52a8.25,8.25,0,0,0-7.14,12.37l29.13,50.46a8.25,8.25,0,0,0,14.28,0l29.14-50.46A8.25,8.25,0,0,0,235.8,183.05Z"/><path class="cls-1" d="M17.78,90.43H57V67h9.52a8.24,8.24,0,0,0,7.14-12.37L44.53,4.12a8.25,8.25,0,0,0-14.28,0L1.12,54.58A8.24,8.24,0,0,0,8.26,67h9.52Z"/><path class="cls-1" d="M81.74,111.14c-2.67-4.63-5-5.26-9.64-2.58q-27.31,15.76-54.67,31.51c-1.57.9-1.58,1.52-.75,3Q31.9,169.24,47,195.53q8.12,14,16.31,28c1.55-.52,2.53.25,3.31,1.47.65-.34,1.32-.67,2-1q26.26-15.15,52.52-30.33c4.75-2.74,5.34-5,2.58-9.76Z"/><path class="cls-1" d="M140.87,146.21c-2.58-4.47-1.86-6.65,2.86-8.65,11.72-4.94,23.5-9.77,35.17-14.84,12.54-5.45,25.47-10,37.62-16.36,7.57-3.94,11.15-10.51,11.4-17.16-.18-10.89-5.51-18.48-13.93-21.6-8.19-3-15.53-.83-22.13,4.12-20.06,15-40,30.22-60,45.35-4,3.05-6.35,2.56-8.92-1.88q-7.5-13-15-26c-2.16-3.73-4.67-4.17-8-1.41-4.09,3.43-8.16,6.9-12.24,10.35-3.63,3.07-4.18,5.89-1.84,9.95Q107.23,145,128.57,182c2.23,3.85,5,4.85,9.17,3.36,5-1.77,10-3.58,15-5.39,4.49-1.62,5.31-3.85,2.95-7.94Q148.31,159.1,140.87,146.21Zm65.78-66.29a7.66,7.66,0,1,1-7.71,7.78A7.7,7.7,0,0,1,206.65,79.92Z"/></g></g></svg>