<svg xmlns="http://www.w3.org/2000/svg" viewBox="0 0 242.73 250"><defs><style>.cls-1{fill:#193772;}</style></defs><g id="Capa_2" data-name="Capa 2"><g id="interlineado_" data-name="interlineado+"><path class="cls-1" d="M173.7,112.75h-69V68.62h69ZM74.83,174.69H64.12V148.28H20v26.41H9.29a9.27,9.27,0,0,0-8,13.91L34,245.36a9.27,9.27,0,0,0,16.06,0L82.86,188.6A9.27,9.27,0,0,0,74.83,174.69ZM50.09,4.64A9.27,9.27,0,0,0,34,4.64L1.26,61.4a9.27,9.27,0,0,0,8,13.91H20v26.41H64.12V75.31H74.83a9.27,9.27,0,0,0,8-13.91ZM104.67,250h69V205.87h-69Zm0-68.62H242.73V137.25H104.67ZM104.67,0V44.13H242.73V0Z"/></g></g></svg>