<?xml version="1.0" encoding="utf-8"?>
<!-- Generator: Adobe Illustrator 25.2.1, SVG Export Plug-In . SVG Version: 6.00 Build 0)  -->
<svg version="1.1" id="Capa_1" xmlns="http://www.w3.org/2000/svg" xmlns:xlink="http://www.w3.org/1999/xlink" x="0px" y="0px"
	 viewBox="0 0 249.9 223.8" style="enable-background:new 0 0 249.9 223.8;" xml:space="preserve">
<style type="text/css">
	.st0{fill:#FFFFFF;}
</style>
<g id="Capa_2_1_">
	<g id="Capa_1-2">
		<path class="st0" d="M222.4,0H27.6C12.4,0,0,12.3,0,27.5c0,4.8,1.3,9.6,3.7,13.8L101.1,210c7.6,13.2,24.5,17.7,37.6,10.1
			c4.2-2.4,7.7-5.9,10.1-10.1l97.4-168.7l0,0c7.6-13.2,3.1-30-10.1-37.7C231.9,1.3,227.2,0,222.4,0z M205.2,45c-0.1,1-0.1,2-0.2,2.9
			s-0.2,1.8-0.4,2.7c-0.1,0.8-0.3,1.5-0.7,2.2c-0.4,0.7-0.9,1.3-1.7,1.7c-0.9,0.4-1.9,0.6-2.9,0.5c-2.1,0-7-0.5-14.8-1.4l-11.3-1.3
			c-3.2-0.4-5.2-0.5-5.9-0.5c-0.6,0-1.7-0.1-3.1-0.2l-4.5-0.2c-0.7,0-1.6-0.1-2.7-0.1l-0.6,1.3c-0.4,1.1-0.9,2.4-1.6,3.9
			s-1.2,3-1.8,4.3c-0.5,1.2-1,2.3-1.5,3.4c-0.5,1.3-0.9,2.2-1.1,2.7l-0.6,1.3c-0.2,0.5-0.4,0.9-0.5,1.1c-0.3,0.7-0.9,1.8-1.6,3.4
			s-1.5,3.4-2.4,5.4s-1.5,3.4-2.2,4.9s-1.2,2.6-1.5,3.3c-0.4,0.9-0.9,2.1-1.6,3.5s-1.2,2.7-1.8,3.9c-1.4,3-2.6,5.8-3.7,8.3
			l-6.9,16.5c-0.1,0.4-0.7,1.9-1.5,4.5s-1.9,5.6-3,9c-1,2.9-1.8,5.5-2.7,7.9c-0.8,2.4-1.4,4.1-1.7,5c-1.7,5-3.1,9.8-4.2,14.4
			c-0.4,1.8-0.7,3.1-0.9,4.1c-0.1,0.8-0.2,1.6-0.2,2.4c0,0.6,0.1,1.2,0.2,1.8c0.2,1.1,0.1,2.2-0.4,3.2c-0.5,0.9-1.6,1.3-3.2,0.9
			c-1.8-0.6-3.3-1.8-4.5-3.3c-1.4-1.6-2.5-3.5-3.3-5.5c-1.1-3.2-1.5-6.6-1.2-10c0.4-4,1-8.1,2-12c1.2-5.6,2.6-11.3,4.2-17.2
			c1.6-5.9,2.9-10.6,4-14c1-3.1,2-6.4,3.1-9.7c1.1-3.3,2-5.9,2.7-7.8c0.6-1.6,1.1-2.9,1.4-3.9l1.2-3.2c0.1-0.3,0.3-0.7,0.4-1
			c0.1-0.1,0.1-0.1,0.1-0.2c0.1-0.3,0.2-0.7,0.3-1c0.1-0.3,0.3-0.6,0.3-0.8c1.3-3.5,3.4-8.2,6.1-14.3c2.7-6.1,5.1-11.2,7.1-15.3
			l0.2-0.5c-7.9,0.5-15.2,1.1-21.9,1.9c-6.7,0.8-11.3,1.3-13.8,1.4c-2.4,0.3-4.1,0.1-5-0.6c-1-0.9-1.6-2.2-1.8-3.5
			c-0.3-1.5-0.3-3-0.2-4.6c0-0.5,0.1-1,0.2-1.7c0.1-0.5,0.2-1.1,0.4-1.6l0.1-0.2c0.9-1.1,2.2-1.8,3.7-2.1c1.8-0.6,5.5-1.5,11-2.8
			c12.8-3.1,25.8-5,39-5.6c1.3-1.1,3.1-1.4,4.8-1c0.6,0.2,1.1,0.5,1.5,0.8h3.1c12.5,0.1,22.8,0.4,30.9,0.9c3.4,0.2,6.5,0.6,9.3,1
			c2,0.2,4,0.7,5.9,1.6c2.1,1.5,3.3,3.8,3.5,6.3C205.3,43.3,205.3,44.2,205.2,45z"/>
	</g>
</g>
</svg>
