<svg xmlns="http://www.w3.org/2000/svg" viewBox="0 0 139.65 211.43"><defs><style>.cls-1{fill:#fff;}</style></defs><g id="Capa_2" data-name="Capa 2"><g id="Capa_1-2" data-name="Capa 1"><path class="cls-1" d="M139.65,55.72a43.24,43.24,0,0,1-4.82,20.81A63.67,63.67,0,0,1,123.38,92q-6.63,6.5-23.81,21.85A96.57,96.57,0,0,0,92,121.43a27.8,27.8,0,0,0-6.43,11.45q-.77,2.72-2.3,9.56Q80.57,157,66.61,157a17,17,0,0,1-12.22-4.75q-4.95-4.75-5-14.11,0-11.73,3.63-20.32a51.69,51.69,0,0,1,9.63-15.08A221.92,221.92,0,0,1,78.9,87.28q8.94-7.82,12.92-11.8a39.88,39.88,0,0,0,6.7-8.87A21.36,21.36,0,0,0,101.25,56a24.7,24.7,0,0,0-8.31-18.85q-8.31-7.68-21.44-7.68-15.36,0-22.62,7.75T36.59,60.05q-4.76,15.78-18,15.78A17.69,17.69,0,0,1,5.38,70.31Q0,64.81,0,58.37,0,45.11,8.52,31.49T33.38,8.94Q49.72,0,71.5,0q20.25,0,35.75,7.47T131.2,27.79A49.88,49.88,0,0,1,139.65,55.72Zm-71.5,114a20.75,20.75,0,0,0-15.08,6,19.85,19.85,0,0,0-6.15,14.8q0,9.92,6.36,15.43a22,22,0,0,0,14.87,5.52,21.23,21.23,0,0,0,14.52-5.59Q89,200.26,89,190.48a20.53,20.53,0,0,0-20.81-20.81Z"/></g></g></svg>